<svg width="16" height="16" viewBox="0 0 16 16" fill="none" xmlns="http://www.w3.org/2000/svg">
<path d="M0.969157 1.38583C0.85865 1.38583 0.752669 1.34193 0.674529 1.26379C0.596389 1.18565 0.55249 1.07967 0.55249 0.969166C0.55249 0.858659 0.596389 0.752679 0.674529 0.674538C0.752669 0.596398 0.85865 0.5525 0.969157 0.5525L15.0308 0.551666C15.1413 0.551666 15.2473 0.595565 15.3255 0.673705C15.4036 0.751845 15.4475 0.857826 15.4475 0.968333C15.4475 1.07884 15.4036 1.18482 15.3255 1.26296C15.2473 1.3411 15.1413 1.385 15.0308 1.385L0.969157 1.38583ZM0.969157 8.4175C0.85865 8.4175 0.752669 8.3736 0.674529 8.29546C0.596389 8.21732 0.55249 8.11134 0.55249 8.00083C0.55249 7.89033 0.596389 7.78434 0.674529 7.7062C0.752669 7.62806 0.85865 7.58417 0.969157 7.58417L15.0308 7.5825C15.1413 7.5825 15.2473 7.6264 15.3255 7.70454C15.4036 7.78268 15.4475 7.88866 15.4475 7.99917C15.4475 8.10967 15.4036 8.21565 15.3255 8.29379C15.2473 8.37193 15.1413 8.41583 15.0308 8.41583L0.969157 8.4175ZM0.969157 15.4492C0.85865 15.4492 0.752669 15.4053 0.674529 15.3271C0.596389 15.249 0.55249 15.143 0.55249 15.0325C0.55249 14.922 0.596389 14.816 0.674529 14.7379C0.752669 14.6597 0.85865 14.6158 0.969157 14.6158L15.0308 14.6142C15.1413 14.6142 15.2473 14.6581 15.3255 14.7362C15.4036 14.8143 15.4475 14.9203 15.4475 15.0308C15.4475 15.1413 15.4036 15.2473 15.3255 15.3255C15.2473 15.4036 15.1413 15.4475 15.0308 15.4475L0.969157 15.4492Z" fill="#F4EEF7"/>
</svg>
